<?xml version="1.0" standalone="no"?>
<!DOCTYPE svg PUBLIC "-//W3C//DTD SVG 20010904//EN"
 "http://www.w3.org/TR/2001/REC-SVG-20010904/DTD/svg10.dtd">
<svg version="1.0" xmlns="http://www.w3.org/2000/svg"
 width="500.000000pt" height="500.000000pt" viewBox="0 0 500.000000 500.000000"
 preserveAspectRatio="xMidYMid meet">

<g transform="translate(0.000000,500.000000) scale(0.100000,-0.100000)"
fill="#000000" stroke="none">
<path d="M520 2615 l0 -1015 24 -6 c13 -3 38 -4 57 -2 l34 3 3 1018 2 1017
-60 0 -60 0 0 -1015z"/>
<path d="M692 2613 l3 -1018 50 0 50 0 3 1018 2 1017 -55 0 -55 0 2 -1017z"/>
<path d="M932 2613 c3 -897 5 -1018 18 -1018 13 0 15 121 18 1018 2 1013 2
1017 -18 1017 -20 0 -20 -4 -18 -1017z"/>
<path d="M1010 2616 c0 -861 2 -1015 14 -1019 8 -3 17 -3 20 0 3 4 6 462 6
1020 0 1006 0 1013 -20 1013 -20 0 -20 -7 -20 -1014z"/>
<path d="M1090 2616 c0 -915 2 -1014 16 -1020 9 -3 18 -6 20 -6 2 0 4 459 4
1020 0 1013 0 1020 -20 1020 -20 0 -20 -7 -20 -1014z"/>
<path d="M1182 2615 c2 -668 6 -1015 13 -1015 7 0 11 347 13 1015 2 900 0
1015 -13 1015 -13 0 -15 -115 -13 -1015z"/>
<path d="M1260 2617 c0 -558 3 -1016 6 -1020 3 -3 12 -3 20 0 12 4 14 158 14
1019 0 1007 0 1014 -20 1014 -20 0 -20 -7 -20 -1013z"/>
<path d="M1422 2613 l3 -1018 55 0 55 0 3 1018 2 1017 -60 0 -60 0 2 -1017z"/>
<path d="M1592 2615 c2 -668 6 -1015 13 -1015 7 0 11 347 13 1015 2 900 0
1015 -13 1015 -13 0 -15 -115 -13 -1015z"/>
<path d="M1660 2616 c0 -915 2 -1014 16 -1020 9 -3 36 -6 60 -6 l44 0 0 1020
0 1020 -60 0 -60 0 0 -1014z"/>
<path d="M1830 2617 c0 -558 3 -1016 6 -1020 3 -3 12 -3 20 0 12 4 14 158 14
1019 0 1007 0 1014 -20 1014 -20 0 -20 -7 -20 -1013z"/>
<path d="M1910 2617 c0 -558 3 -1016 6 -1020 3 -3 12 -3 20 0 12 4 14 158 14
1019 0 1007 0 1014 -20 1014 -20 0 -20 -7 -20 -1013z"/>
<path d="M2072 2613 l3 -1018 55 0 55 0 3 1018 2 1017 -60 0 -60 0 2 -1017z"/>
<path d="M2242 2615 c2 -668 6 -1015 13 -1015 7 0 11 347 13 1015 2 900 0
1015 -13 1015 -13 0 -15 -115 -13 -1015z"/>
<path d="M2322 2613 l3 -1018 55 0 55 0 3 1018 2 1017 -60 0 -60 0 2 -1017z"/>
<path d="M2480 2615 c0 -1008 0 -1015 20 -1015 20 0 20 7 20 1015 0 1008 0
1015 -20 1015 -20 0 -20 -7 -20 -1015z"/>
<path d="M2562 2613 l3 -1018 55 0 55 0 3 1018 2 1017 -60 0 -60 0 2 -1017z"/>
<path d="M2730 2609 c0 -812 3 -1020 13 -1017 9 4 13 219 15 1021 2 900 0
1017 -13 1017 -13 0 -15 -119 -15 -1021z"/>
<path d="M2892 2613 c2 -802 6 -1017 16 -1021 9 -3 12 205 12 1017 0 902 -2
1021 -15 1021 -13 0 -15 -117 -13 -1017z"/>
<path d="M2972 2613 l3 -1018 55 0 55 0 3 1018 2 1017 -60 0 -60 0 2 -1017z"/>
<path d="M3130 2615 l0 -1015 24 -6 c13 -3 38 -4 57 -2 l34 3 3 1018 2 1017
-60 0 -60 0 0 -1015z"/>
<path d="M3300 2609 c0 -812 3 -1020 13 -1017 9 4 13 219 15 1021 2 900 0
1017 -13 1017 -13 0 -15 -119 -15 -1021z"/>
<path d="M3380 2609 c0 -812 3 -1020 13 -1017 9 4 13 219 15 1021 2 900 0
1017 -13 1017 -13 0 -15 -119 -15 -1021z"/>
<path d="M3542 2613 c3 -897 5 -1018 18 -1018 13 0 15 121 18 1018 2 1013 2
1017 -18 1017 -20 0 -20 -4 -18 -1017z"/>
<path d="M3622 2613 l3 -1018 55 0 55 0 3 1018 2 1017 -60 0 -60 0 2 -1017z"/>
<path d="M3780 2615 l0 -1015 24 -6 c13 -3 38 -4 57 -2 l34 3 3 1018 2 1017
-60 0 -60 0 0 -1015z"/>
<path d="M3950 2609 c0 -812 3 -1020 13 -1017 9 4 13 219 15 1021 2 900 0
1017 -13 1017 -13 0 -15 -119 -15 -1021z"/>
<path d="M4112 2613 c3 -897 5 -1018 18 -1018 13 0 15 121 18 1018 2 1013 2
1017 -18 1017 -20 0 -20 -4 -18 -1017z"/>
<path d="M4192 2613 l3 -1018 55 0 55 0 3 1018 2 1017 -60 0 -60 0 2 -1017z"/>
<path d="M4350 2616 c0 -915 2 -1014 16 -1020 9 -3 18 -6 20 -6 2 0 4 459 4
1020 0 1013 0 1020 -20 1020 -20 0 -20 -7 -20 -1014z"/>
<path d="M4442 2615 c2 -668 6 -1015 13 -1015 7 0 11 347 13 1015 2 900 0
1015 -13 1015 -13 0 -15 -115 -13 -1015z"/>
<path d="M4522 2615 c2 -668 6 -1015 13 -1015 7 0 11 347 13 1015 2 900 0
1015 -13 1015 -13 0 -15 -115 -13 -1015z"/>
<path d="M730 1490 c0 -18 7 -20 78 -20 l77 0 -42 -36 c-55 -46 -56 -64 -2
-64 76 0 106 -42 54 -76 -21 -13 -40 -16 -95 -11 -62 5 -70 4 -70 -12 0 -20
51 -41 102 -41 36 0 90 21 121 48 40 35 10 107 -50 118 l-36 7 42 34 c22 19
41 43 41 54 0 18 -8 19 -110 19 -103 0 -110 -1 -110 -20z"/>
<path d="M1438 1423 c-32 -47 -58 -96 -58 -109 0 -23 3 -24 70 -24 67 0 70 -1
70 -24 0 -24 23 -41 41 -30 5 3 9 16 9 30 0 19 5 24 25 24 18 0 25 5 25 20 0
15 -7 20 -24 20 -19 0 -25 6 -28 28 -2 19 -9 27 -23 27 -14 0 -21 -8 -23 -27
-3 -25 -7 -28 -44 -28 -48 0 -47 3 13 91 39 57 45 89 17 89 -7 -1 -39 -39 -70
-87z"/>
<path d="M2088 1421 c-32 -49 -58 -99 -58 -110 0 -19 6 -21 70 -21 67 0 70 -1
70 -24 0 -24 23 -41 41 -30 5 3 9 16 9 30 0 19 5 24 25 24 18 0 25 5 25 20 0
15 -7 20 -24 20 -19 0 -25 6 -28 28 -2 19 -9 27 -23 27 -14 0 -21 -8 -23 -27
-3 -25 -7 -28 -43 -28 -21 0 -39 3 -39 6 0 4 20 37 45 74 48 72 56 100 28 100
-12 0 -39 -33 -75 -89z"/>
<path d="M4028 1480 l-33 -29 18 -32 c17 -31 17 -32 -4 -55 -73 -78 54 -170
162 -117 64 32 76 72 34 121 -22 26 -23 31 -10 42 23 19 18 56 -11 79 -42 33
-115 29 -156 -9z m116 -6 c19 -7 21 -35 4 -52 -7 -7 -26 -12 -43 -12 -17 0
-36 5 -43 12 -16 16 -15 45 1 51 18 8 63 8 81 1z m20 -120 c35 -35 6 -74 -56
-74 -40 0 -78 21 -78 43 0 6 7 19 17 29 21 23 95 25 117 2z"/>
<path d="M2687 1493 c-4 -3 -7 -60 -7 -125 l0 -118 93 0 c97 0 125 10 147 51
8 15 7 27 -4 49 -11 24 -12 36 -3 61 11 29 10 33 -23 60 -32 27 -41 29 -115
29 -45 0 -85 -3 -88 -7z m172 -47 c6 -7 9 -21 5 -30 -5 -12 -20 -16 -70 -16
-60 0 -64 1 -64 23 0 13 3 27 7 30 12 13 110 7 122 -7z m14 -108 c20 -31 -8
-48 -79 -48 l-64 0 0 35 0 36 66 -3 c49 -2 70 -7 77 -20z"/>
<path d="M3376 1373 c-39 -116 -43 -143 -23 -143 19 0 37 21 37 45 0 32 19 45
66 45 45 0 59 -10 69 -52 7 -28 33 -44 47 -30 5 5 0 28 -10 53 -11 24 -29 77
-42 117 l-23 72 -42 0 -42 0 -37 -107z m108 0 c7 -21 4 -23 -28 -23 -42 0 -41
0 -19 59 l17 45 12 -30 c6 -16 15 -39 18 -51z"/>
</g>
</svg>
